<svg xmlns="http://www.w3.org/2000/svg" xmlns:xlink="http://www.w3.org/1999/xlink" width="500" zoomAndPan="magnify" viewBox="0 0 375 374.999991" height="500" preserveAspectRatio="xMidYMid meet" version="1.0"><defs><g/></defs><rect x="-37.5" width="450" fill="#ffffff" y="-37.499999" height="449.999989" fill-opacity="1"/><rect x="-37.5" width="450" fill="#f8f4e3" y="-37.499999" height="449.999989" fill-opacity="1"/><g fill="#181818" fill-opacity="1"><g transform="translate(112.833131, 275.584112)"><g><path d="M 4.765625 -126.828125 C 4.765625 -136.535156 7.367188 -145.492188 12.578125 -153.703125 C 17.785156 -161.910156 24.84375 -168.523438 33.75 -173.546875 C 42.664062 -178.578125 52.6875 -181.09375 63.8125 -181.09375 C 70.34375 -181.09375 76.164062 -180.078125 81.28125 -178.046875 C 86.40625 -176.023438 91.039062 -173.644531 95.1875 -170.90625 C 99.332031 -168.164062 103.171875 -165.78125 106.703125 -163.75 C 110.234375 -161.726562 113.585938 -160.71875 116.765625 -160.71875 C 123.472656 -160.71875 127.796875 -162.4375 129.734375 -165.875 C 131.671875 -169.3125 132.640625 -173.945312 132.640625 -179.78125 L 138.734375 -179.78125 C 139.617188 -172.539062 139.707031 -165.082031 139 -157.40625 C 138.289062 -149.726562 136.347656 -142.625 133.171875 -136.09375 C 129.992188 -129.5625 125.316406 -124.265625 119.140625 -120.203125 C 112.960938 -116.140625 104.929688 -114.109375 95.046875 -114.109375 C 88.515625 -114.109375 82.734375 -115.5625 77.703125 -118.46875 C 72.671875 -121.382812 68.125 -125.003906 64.0625 -129.328125 C 60.007812 -133.660156 56.347656 -138.078125 53.078125 -142.578125 C 49.816406 -147.078125 46.640625 -150.957031 43.546875 -154.21875 C 40.460938 -157.488281 37.285156 -159.476562 34.015625 -160.1875 C 30.753906 -160.894531 27.179688 -159.65625 23.296875 -156.46875 C 19.054688 -152.945312 18.394531 -148.582031 21.3125 -143.375 C 24.226562 -138.164062 30.363281 -132.867188 39.71875 -127.484375 C 49.070312 -122.097656 61.160156 -117.289062 75.984375 -113.0625 C 81.628906 -111.46875 88.289062 -109.210938 95.96875 -106.296875 C 103.65625 -103.390625 111.203125 -99.597656 118.609375 -94.921875 C 126.023438 -90.242188 132.203125 -84.550781 137.140625 -77.84375 C 142.085938 -71.132812 144.5625 -63.191406 144.5625 -54.015625 C 144.5625 -44.128906 141.910156 -34.945312 136.609375 -26.46875 C 131.316406 -18 124.171875 -11.160156 115.171875 -5.953125 C 106.171875 -0.742188 95.929688 1.859375 84.453125 1.859375 C 77.921875 1.859375 71.921875 0.800781 66.453125 -1.3125 C 60.984375 -3.4375 55.953125 -5.820312 51.359375 -8.46875 C 46.773438 -11.113281 42.539062 -13.492188 38.65625 -15.609375 C 34.769531 -17.734375 31.148438 -18.796875 27.796875 -18.796875 C 21.265625 -18.796875 16.984375 -17.070312 14.953125 -13.625 C 12.929688 -10.1875 11.921875 -5.554688 11.921875 0.265625 L 6.09375 0.265625 C 5.03125 -6.972656 4.894531 -14.429688 5.6875 -22.109375 C 6.488281 -29.785156 8.476562 -36.890625 11.65625 -43.421875 C 14.832031 -49.953125 19.507812 -55.242188 25.6875 -59.296875 C 31.863281 -63.359375 39.804688 -65.390625 49.515625 -65.390625 C 56.046875 -65.390625 61.957031 -63.929688 67.25 -61.015625 C 72.539062 -58.109375 77.347656 -54.445312 81.671875 -50.03125 C 86.003906 -45.625 90.019531 -41.171875 93.71875 -36.671875 C 97.425781 -32.171875 100.957031 -28.285156 104.3125 -25.015625 C 107.664062 -21.753906 111.019531 -19.769531 114.375 -19.0625 C 117.726562 -18.351562 121.257812 -19.585938 124.96875 -22.765625 C 129.207031 -26.472656 129.425781 -31.0625 125.625 -36.53125 C 121.832031 -42.007812 114.945312 -47.570312 104.96875 -53.21875 C 95 -58.863281 82.515625 -63.894531 67.515625 -68.3125 C 55.515625 -71.84375 44.75 -75.898438 35.21875 -80.484375 C 25.6875 -85.078125 18.226562 -91.035156 12.84375 -98.359375 C 7.457031 -105.679688 4.765625 -115.171875 4.765625 -126.828125 Z M 4.765625 -126.828125 "/></g></g></g></svg>