<svg xmlns="http://www.w3.org/2000/svg" xmlns:xlink="http://www.w3.org/1999/xlink" width="500" zoomAndPan="magnify" viewBox="0 0 375 374.999991" height="500" preserveAspectRatio="xMidYMid meet" version="1.0"><defs><g/></defs><rect x="-37.5" width="450" fill="#ffffff" y="-37.499999" height="449.999989" fill-opacity="1"/><rect x="-37.5" width="450" fill="#181818" y="-37.499999" height="449.999989" fill-opacity="1"/><g fill="#f8f4e3" fill-opacity="1"><g transform="translate(44.944564, 354.115139)"><g><path d="M 9.09375 -242.140625 C 9.09375 -260.671875 14.0625 -277.769531 24 -293.4375 C 33.945312 -309.113281 47.429688 -321.753906 64.453125 -331.359375 C 81.472656 -340.960938 100.597656 -345.765625 121.828125 -345.765625 C 134.296875 -345.765625 145.414062 -343.828125 155.1875 -339.953125 C 164.957031 -336.078125 173.800781 -331.523438 181.71875 -326.296875 C 189.644531 -321.078125 196.976562 -316.53125 203.71875 -312.65625 C 210.457031 -308.78125 216.859375 -306.84375 222.921875 -306.84375 C 235.734375 -306.84375 243.988281 -310.125 247.6875 -316.6875 C 251.394531 -323.257812 253.25 -332.109375 253.25 -343.234375 L 264.875 -343.234375 C 266.5625 -329.421875 266.726562 -315.179688 265.375 -300.515625 C 264.03125 -285.859375 260.328125 -272.296875 254.265625 -259.828125 C 248.203125 -247.359375 239.269531 -237.25 227.46875 -229.5 C 215.675781 -221.75 200.34375 -217.875 181.46875 -217.875 C 169 -217.875 157.960938 -220.648438 148.359375 -226.203125 C 138.753906 -231.765625 130.078125 -238.675781 122.328125 -246.9375 C 114.578125 -255.195312 107.582031 -263.625 101.34375 -272.21875 C 95.113281 -280.8125 89.050781 -288.222656 83.15625 -294.453125 C 77.257812 -300.691406 71.191406 -304.484375 64.953125 -305.828125 C 58.722656 -307.171875 51.898438 -304.8125 44.484375 -298.75 C 36.398438 -292.007812 35.132812 -283.664062 40.6875 -273.71875 C 46.25 -263.78125 57.957031 -253.671875 75.8125 -243.390625 C 93.675781 -233.117188 116.765625 -223.9375 145.078125 -215.84375 C 155.859375 -212.8125 168.578125 -208.515625 183.234375 -202.953125 C 197.898438 -197.398438 212.304688 -190.15625 226.453125 -181.21875 C 240.609375 -172.289062 252.40625 -161.421875 261.84375 -148.609375 C 271.28125 -135.804688 276 -120.644531 276 -103.125 C 276 -84.25 270.941406 -66.722656 260.828125 -50.546875 C 250.722656 -34.367188 237.078125 -21.3125 219.890625 -11.375 C 202.703125 -1.4375 183.15625 3.53125 161.25 3.53125 C 148.78125 3.53125 137.320312 1.507812 126.875 -2.53125 C 116.425781 -6.570312 106.820312 -11.117188 98.0625 -16.171875 C 89.300781 -21.234375 81.210938 -25.785156 73.796875 -29.828125 C 66.390625 -33.867188 59.484375 -35.890625 53.078125 -35.890625 C 40.609375 -35.890625 32.4375 -32.601562 28.5625 -26.03125 C 24.6875 -19.457031 22.75 -10.613281 22.75 0.5 L 11.625 0.5 C 9.601562 -13.3125 9.347656 -27.546875 10.859375 -42.203125 C 12.378906 -56.867188 16.171875 -70.4375 22.234375 -82.90625 C 28.304688 -95.375 37.238281 -105.484375 49.03125 -113.234375 C 60.820312 -120.984375 75.988281 -124.859375 94.53125 -124.859375 C 107 -124.859375 118.285156 -122.078125 128.390625 -116.515625 C 138.503906 -110.953125 147.6875 -103.957031 155.9375 -95.53125 C 164.195312 -87.113281 171.863281 -78.609375 178.9375 -70.015625 C 186.019531 -61.421875 192.757812 -54.003906 199.15625 -47.765625 C 205.5625 -41.535156 211.96875 -37.742188 218.375 -36.390625 C 224.78125 -35.046875 231.519531 -37.40625 238.59375 -43.46875 C 246.6875 -50.550781 247.109375 -59.3125 239.859375 -69.75 C 232.609375 -80.195312 219.460938 -90.8125 200.421875 -101.59375 C 181.390625 -112.382812 157.550781 -121.992188 128.90625 -130.421875 C 105.988281 -137.160156 85.429688 -144.910156 67.234375 -153.671875 C 49.035156 -162.429688 34.796875 -173.800781 24.515625 -187.78125 C 14.234375 -201.769531 9.09375 -219.890625 9.09375 -242.140625 Z M 9.09375 -242.140625 "/></g></g></g></svg>